ply
format ascii 1.0
comment VCGLIB generated
element vertex 372
property float x
property float y
property float z
property float nx
property float ny
property float nz
property uchar red
property uchar green
property uchar blue
property uchar alpha
element face 712
property list uchar int vertex_indices
end_header
1.210883 2.054041 -0.3300068 0.0280313 -0.4463346 -0.894427 255 255 255 255 
1.194109 2.321137 -0.3300068 -0.1880472 0.5239339 -0.8307416 255 255 255 255 
1.254018 2.324899 -0.3300068 0.6137964 0.3453214 -0.7099347 255 255 255 255 
1.270792 2.057804 -0.3300068 0.6124031 -0.540027 -0.5773502 255 255 255 255 
1.1252 2.316809 -0.3300068 0.120984 0.5444941 -0.8299934 255 255 255 255 
1.1252 2.316809 0.3300065 0.1209846 0.544494 0.8299934 255 255 255 255 
1.194109 2.321137 0.3300065 -0.1880476 0.5239332 0.8307419 255 255 255 255 
0.3839828 2.00211 -0.3300068 -0.7057168 -0.04432097 -0.7071064 255 255 255 255 
0.3839828 2.00211 0.3300066 -0.7057161 -0.04432069 0.7071071 255 255 255 255 
0.3672086 2.269205 0.3300065 -0.6528222 0.2671424 0.7088429 255 255 255 255 
0.3672086 2.269205 -0.3300068 -0.6528228 0.2671406 -0.708843 255 255 255 255 
1.141975 2.049714 0.3300066 -1.395994e-08 2.222821e-07 1 255 255 255 255 
1.210883 2.054042 0.3300066 0.02803125 -0.4463338 0.8944274 255 255 255 255 
0.4528915 2.006438 -0.3300068 1.395992e-08 -2.22282e-07 -1 255 255 255 255 
0.4361172 2.273533 -0.3300068 0.1209841 0.544494 -0.8299935 255 255 255 255 
1.141975 2.049714 -0.3300068 6.979843e-09 -1.11141e-07 -1 255 255 255 255 
1.073067 2.045386 -0.3300068 6.980004e-09 -1.11141e-07 -1 255 255 255 255 
1.056292 2.312481 -0.3300068 -0.1881563 0.5250782 -0.829994 255 255 255 255 
1.004159 2.041059 -0.3300068 6.979995e-09 -1.11141e-07 -1 255 255 255 255 
0.93525 2.036731 -0.3300068 6.979961e-09 -1.11141e-07 -1 255 255 255 255 
0.9184757 2.303826 -0.3300068 -0.188156 0.5250797 -0.8299932 255 255 255 255 
0.9873844 2.308154 -0.3300068 0.1209842 0.5444939 -0.8299936 255 255 255 255 
0.8663414 2.032403 -0.3300068 6.979998e-09 -1.11141e-07 -1 255 255 255 255 
0.7974334 2.028076 -0.3300068 -1.708664e-07 -1.691325e-07 -1 255 255 255 255 
0.7806591 2.295171 -0.3300068 -0.1881563 0.5250797 -0.8299931 255 255 255 255 
0.8495671 2.299499 -0.3300068 0.1209832 0.5444938 -0.8299938 255 255 255 255 
0.7285255 2.023748 -0.3300068 -2.014377e-07 -2.358096e-07 -1 255 255 255 255 
0.6596168 2.01942 -0.3300068 1.396025e-08 -2.22282e-07 -1 255 255 255 255 
0.6428425 2.286516 -0.3300068 -0.1881563 0.525079 -0.8299935 255 255 255 255 
0.7117512 2.290843 -0.3300068 0.1209837 0.5444928 -0.8299943 255 255 255 255 
0.5907456 2.015095 -0.3300068 1.396e-08 -2.22282e-07 -1 255 255 255 255 
0.5218002 2.010765 -0.3300068 1.395966e-08 -2.22282e-07 -1 255 255 255 255 
0.5050259 2.27786 -0.3300068 -0.1881555 0.5250834 -0.829991 255 255 255 255 
0.5739713 2.28219 -0.3300068 0.1209834 0.5444977 -0.8299912 255 255 255 255 
0.4528915 2.006438 0.3300066 -6.979961e-09 1.11141e-07 1 255 255 255 255 
0.5218002 2.010765 0.3300066 -6.980023e-09 1.11141e-07 1 255 255 255 255 
0.5050259 2.277861 0.3300065 -0.1881565 0.5250839 0.8299904 255 255 255 255 
0.4361172 2.273533 0.3300065 0.1209835 0.5444937 0.8299937 255 255 255 255 
0.5907456 2.015095 0.3300066 2.471384e-08 1.599583e-07 1 255 255 255 255 
0.6596168 2.019421 0.3300066 -1.395994e-08 2.222821e-07 1 255 255 255 255 
0.6428425 2.286516 0.3300065 -0.1881555 0.5250789 0.8299938 255 255 255 255 
0.5739713 2.282191 0.3300065 0.1209843 0.5444988 0.8299903 255 255 255 255 
0.7285255 2.023748 0.3300066 -1.395961e-08 2.22282e-07 1 255 255 255 255 
0.7974334 2.028076 0.3300066 -1.396006e-08 2.22282e-07 1 255 255 255 255 
0.7806591 2.295171 0.3300065 -0.1881561 0.5250786 0.8299938 255 255 255 255 
0.7117512 2.290843 0.3300065 0.1209838 0.5444944 0.8299933 255 255 255 255 
0.8663414 2.032403 0.3300066 -1.396e-08 2.22282e-07 1 255 255 255 255 
0.93525 2.036731 0.3300066 -1.395987e-08 2.222821e-07 1 255 255 255 255 
0.9184757 2.303826 0.3300065 -0.188155 0.5250795 0.8299935 255 255 255 255 
0.8495671 2.299499 0.3300065 0.120984 0.5444944 0.8299932 255 255 255 255 
1.004159 2.041059 0.3300066 -1.396006e-08 2.222821e-07 1 255 255 255 255 
1.073067 2.045386 0.3300066 -1.395968e-08 2.22282e-07 1 255 255 255 255 
1.056292 2.312482 0.3300065 -0.1881564 0.5250796 0.8299931 255 255 255 255 
0.9873844 2.308154 0.3300065 0.1209834 0.5444936 0.8299938 255 255 255 255 
0.9201641 2.34444 -0.2895665 -0.6481608 0.6859064 -0.3307871 255 255 255 255 
0.980628 2.348238 -0.2895665 0.5572532 0.7616092 -0.3307875 255 255 255 255 
1.118444 2.356893 0.2895662 0.5572528 0.7616095 0.3307875 255 255 255 255 
1.057981 2.353096 0.2895662 -0.6481612 0.685906 0.3307869 255 255 255 255 
0.3688969 2.309819 0.2895662 -0.6481611 0.6859061 0.330787 255 255 255 255 
0.3688969 2.309819 -0.2895665 -0.6481606 0.6859064 -0.3307874 255 255 255 255 
0.5672128 2.322274 0.2895662 0.5572343 0.7616248 0.3307834 255 255 255 255 
0.5067163 2.318475 0.2895662 -0.6481425 0.6859255 0.3307834 255 255 255 255 
0.4293608 2.313617 -0.2895665 0.5572528 0.7616099 -0.3307866 255 255 255 255 
0.4293608 2.313617 0.2895662 0.5572532 0.7616094 0.3307872 255 255 255 255 
0.7049947 2.330927 -0.2895665 0.5572529 0.7616091 -0.3307879 255 255 255 255 
0.7049947 2.330927 0.2895662 0.5572529 0.7616093 0.3307879 255 255 255 255 
1.270792 2.057804 0.3300066 0.612403 -0.5400267 0.5773506 255 255 255 255 
1.254018 2.324899 0.3300065 0.6137967 0.3453204 0.7099348 255 255 255 255 
1.247813 2.365018 0.2895662 0.5625347 0.7572912 0.3317601 255 255 255 255 
1.195246 2.361717 0.2895662 -0.6528611 0.680961 0.3317599 255 255 255 255 
0.4203052 2.323596 0.2091528 0.3574379 0.9331299 0.03881834 255 255 255 255 
0.3766322 2.320853 0.2091528 -0.4713907 0.8810698 0.03881875 255 255 255 255 
0.8428107 2.339582 -0.2895665 0.5572529 0.7616094 -0.3307876 255 255 255 255 
0.7823475 2.335785 -0.2895665 -0.6481611 0.6859059 -0.3307875 255 255 255 255 
0.7900828 2.346819 -0.2091531 -0.471391 0.8810697 -0.03881875 255 255 255 255 
0.8337557 2.349562 -0.2091531 0.3574529 0.9331241 -0.03881878 255 255 255 255 
0.9201641 2.34444 0.2895662 -0.6481611 0.6859062 0.3307867 255 255 255 255 
0.980628 2.348238 0.2895662 0.5572531 0.7616093 0.3307874 255 255 255 255 
0.9715731 2.358217 0.2091528 0.3574538 0.9331238 0.03881869 255 255 255 255 
0.9279001 2.355474 0.2091528 -0.4713717 0.8810799 0.03881851 255 255 255 255 
0.5067163 2.318475 -0.2895665 -0.6481435 0.6859243 -0.3307838 255 255 255 255 
0.5144563 2.329509 0.2091528 -0.4712675 0.8811358 0.03881609 255 255 255 255 
0.5144563 2.329509 -0.2091531 -0.4712689 0.881135 -0.03881703 255 255 255 255 
1.057981 2.353096 -0.2895665 -0.6481608 0.6859062 -0.3307873 255 255 255 255 
1.065716 2.36413 0.2091528 -0.4713907 0.8810697 0.03881875 255 255 255 255 
1.065716 2.36413 -0.2091531 -0.4713861 0.8810723 -0.0388181 255 255 255 255 
0.8428107 2.339583 0.2895662 0.5572523 0.76161 0.3307872 255 255 255 255 
0.8337557 2.349562 0.2091528 0.3574485 0.9331258 0.03881781 255 255 255 255 
1.247813 2.365018 -0.2895665 0.5625349 0.7572913 -0.3317595 255 255 255 255 
1.195246 2.361716 -0.2895665 -0.6528614 0.6809609 -0.3317594 255 255 255 255 
1.201885 2.372681 -0.2091532 -0.5006701 0.8647505 -0.03919372 255 255 255 255 
1.239854 2.375066 -0.2091532 0.3885457 0.9205955 -0.03919403 255 255 255 255 
0.6445309 2.32713 0.2895662 -0.6481603 0.6859066 0.3307875 255 255 255 255 
0.6445309 2.32713 -0.2895665 -0.6481599 0.6859071 -0.3307875 255 255 255 255 
1.118444 2.356893 -0.2895665 0.5572526 0.76161 -0.3307868 255 255 255 255 
0.7823475 2.335785 0.2895662 -0.6481609 0.6859062 0.3307873 255 255 255 255 
0.5672128 2.322274 -0.2895665 0.5572331 0.7616253 -0.3307841 255 255 255 255 
0.3766322 2.320853 -0.2091531 -0.471386 0.8810723 -0.0388182 255 255 255 255 
0.4203052 2.323596 -0.2091531 0.3574316 0.9331323 -0.03881783 255 255 255 255 
1.109389 2.366873 0.2091528 0.3574531 0.9331241 0.03881845 255 255 255 255 
1.109389 2.366872 -0.2091531 0.357447 0.9331264 -0.03881784 255 255 255 255 
0.9279001 2.355474 -0.2091531 -0.4713718 0.8810799 -0.03881847 255 255 255 255 
0.9715731 2.358217 -0.2091531 0.3574536 0.9331238 -0.03881866 255 255 255 255 
0.7900828 2.346819 0.2091528 -0.4713873 0.8810717 0.03881783 255 255 255 255 
0.6522668 2.338164 -0.2091531 -0.4713694 0.8810812 -0.03881767 255 255 255 255 
0.6522668 2.338164 0.2091528 -0.4713716 0.88108 0.03881737 255 255 255 255 
0.6959398 2.340907 0.2091528 0.3574528 0.9331242 0.03881792 255 255 255 255 
0.6959398 2.340907 -0.2091531 0.3574486 0.9331258 -0.03881783 255 255 255 255 
0.5581532 2.332253 0.2091528 0.3573271 0.9331723 0.03881664 255 255 255 255 
0.5581532 2.332253 -0.2091531 0.3573229 0.933174 -0.03881666 255 255 255 255 
1.201885 2.372681 0.2091528 -0.500667 0.8647524 0.03919243 255 255 255 255 
1.239854 2.375066 0.2091528 0.3885417 0.9205973 0.03919268 255 255 255 255 
-7.031598 -0.9181219 -0.4421383 -0.4089217 -0.8211357 -0.3981448 4 4 4 255 
-7.064177 -0.3993702 -1.15755 -0.415866 -0.5521635 -0.722614 9 9 9 255 
-5.645375 -0.3102642 -1.15755 0.2400492 -0.5614362 -0.7919379 17 18 22 255 
-5.612796 -0.829016 -0.4421383 0.2630695 -0.865278 -0.4267181 112 113 118 255 
-7.202183 1.798095 0.4421386 -0.5090606 0.7992183 0.3195425 10 11 13 255 
-7.169604 1.279343 1.15755 -0.4816813 0.4957947 0.7226138 20 21 23 255 
-5.750803 1.368449 1.15755 0.1679201 0.5870579 0.7919381 32 33 35 255 
-5.783381 1.887201 0.4421386 0.1468322 0.9207191 0.3615476 84 85 89 255 
-7.202185 1.850629 -8.47396e-08 -0.526049 0.8504508 0.0024419 13 13 13 255 
-5.783382 1.94588 -1.00258e-07 0.1475747 0.9890509 -0.0001669428 77 78 80 255 
-7.0316 -1.052917 3.88308e-07 -0.4029299 -0.9152278 0.002387172 21 21 21 255 
-5.612797 -0.9576651 3.727896e-07 0.2700619 -0.962843 1.76844e-05 35 36 40 255 
-7.064177 -0.3993698 1.15755 -0.415866 -0.5521634 0.7226141 30 30 30 255 
-7.031598 -0.9181218 0.442139 -0.4100957 -0.8218564 0.3954411 7 7 7 255 
-5.612796 -0.8290159 0.442139 0.2612603 -0.8656845 0.4270052 67 68 70 255 
-5.645375 -0.3102638 1.15755 0.2400492 -0.5614359 0.7919382 1 2 4 255 
-7.169604 1.279343 -1.15755 -0.4816813 0.4957946 -0.7226139 19 19 19 255 
-7.202183 1.798095 -0.4421387 -0.5083443 0.7987694 -0.3217975 18 20 19 255 
-5.783381 1.887201 -0.4421387 0.148767 0.9204935 -0.361331 66 67 69 255 
-5.750803 1.368449 -1.15755 0.1679201 0.5870578 -0.7919381 32 33 37 255 
-7.143248 0.8596644 -1.29418 -0.4924988 0.2413006 -0.8361932 20 20 20 255 
-5.724445 0.9487703 -1.29418 0.1841106 0.3147111 -0.9311607 71 72 76 255 
-7.090534 0.02030843 1.294181 -0.4584393 -0.3010222 0.8361932 10 8 9 255 
-5.671732 0.1094144 1.294181 0.2220382 -0.2892039 0.9311606 61 62 64 255 
-7.11689 0.4399866 1.430811 -0.448774 -0.02818414 0.8932008 26 28 25 255 
-5.698089 0.5290926 1.430811 0.2039847 0.01281104 0.9788903 46 47 49 255 
-7.11689 0.4399862 -1.430811 -0.4487739 -0.02818458 -0.8932008 20 20 20 255 
-5.698089 0.5290921 -1.430811 0.2039847 0.01281055 -0.9788903 56 57 61 255 
-7.329473 0.4266359 1.087229 -0.892685 -0.05606282 0.4471807 30 31 33 255 
-7.309445 0.1077355 0.9834075 -0.8842083 -0.1938788 0.424955 17 19 16 255 
-7.329473 0.4266355 -1.087228 -0.8926849 -0.05606329 -0.4471808 27 32 28 255 
-7.349501 0.7455359 -0.9834072 -0.9015175 0.08173046 -0.4249547 18 23 19 255 
-7.264662 -0.6053485 0.3359677 -0.8685866 -0.4477599 0.2122932 22 22 22 255 
-7.264663 -0.7185723 3.338364e-07 -0.8708545 -0.4915196 0.004579287 25 26 30 255 
-7.369529 1.064437 0.8795862 -0.90916 0.2062671 0.3617763 6 10 9 255 
-7.289418 -0.2111653 -0.8795859 -0.8762099 -0.318393 -0.3617765 25 30 26 255 
-4.975724 1.211678 0.8753311 0.1854774 0.5859187 0.7888584 39 40 44 255 
-5.00036 1.603954 0.3343421 0.1642975 0.9188909 0.3586724 24 25 29 255 
-4.935862 0.5769624 1.081969 0.2214014 0.01390472 0.9750836 24 25 29 255 
-4.896 -0.05775305 0.8753313 0.2573256 -0.5581092 0.7888585 29 30 32 255 
-4.915931 0.2596047 0.9786502 0.2220382 -0.2892039 0.9311606 9 9 9 255 
-4.871364 -0.4500296 0.3343424 0.2692319 -0.8585029 0.4364482 7 7 7 255 
-4.871364 -0.4500297 -0.3343418 0.2672041 -0.8592153 -0.4362926 5 6 8 255 
-4.871365 -0.5525414 3.067865e-07 0.2915593 -0.9565526 -0.0006301442 9 10 12 255 
-4.896 -0.05775333 -0.8753309 0.2573255 -0.5581095 -0.7888584 12 12 12 255 
-4.935862 0.5769621 -1.081969 0.2214015 0.01390438 -0.9750836 67 68 72 255 
-2.127067 0.7533619 -1.081969 -0.1623123 -0.01019386 -0.9866868 25 26 28 255 
-2.087205 0.1186465 -0.8753309 -0.1259608 -0.5890145 -0.7982455 11 12 16 255 
-4.955793 0.8943198 -0.97865 0.1841107 0.3147111 -0.9311607 64 65 69 255 
-4.975724 1.211678 -0.875331 0.1854774 0.5859185 -0.7888585 57 57 57 255 
-2.166929 1.388077 -0.8753311 -0.1986639 0.5686269 -0.7982457 42 43 47 255 
-2.146998 1.07072 -0.97865 -0.1692485 0.2954748 -0.9402391 12 13 17 255 
-5.00036 1.603954 -0.3343422 0.1618688 0.9194818 -0.3582621 9 9 9 255 
-2.191565 1.780354 -0.3343422 -0.2188016 0.8997387 -0.3776191 19 20 24 255 
-5.000361 1.643099 -5.092869e-08 0.152467 0.9883085 -0.0005165564 5 7 6 255 
-2.191565 1.780354 0.3343421 -0.2183272 0.9006444 0.3757299 62 63 65 255 
-2.191565 1.831665 -8.164995e-08 -0.2262374 0.97407 0.002072959 41 42 44 255 
-2.166929 1.388078 0.8753311 -0.1986638 0.5686271 0.7982455 44 45 49 255 
-1.450144 0.7958745 -1.30409 -0.1526597 -0.009587577 -0.9882323 38 39 41 255 
-1.402098 0.03085632 -1.05503 -0.1162512 -0.5893149 -0.7994959 25 26 30 255 
-1.498189 1.560893 -1.055031 -0.1890682 0.5701398 -0.7994961 11 13 12 255 
-1.474166 1.178384 -1.17956 -0.1692485 0.2954748 -0.9402391 10 12 11 255 
-1.527882 2.033701 -0.4029804 -0.2118935 0.8996664 -0.3817086 16 18 17 255 
-1.527882 2.033701 0.4029802 -0.2123799 0.9002314 0.3801031 86 90 93 255 
-1.527883 2.102484 -1.257721e-07 -0.2195057 0.9756097 0.001708393 74 78 81 255 
-1.498189 1.560893 1.055031 -0.1890681 0.5701401 0.7994959 9 9 9 255 
-2.062569 -0.2736298 -0.3343419 -0.1028767 -0.8970705 -0.4297452 71 72 76 255 
-2.062569 -0.3639758 2.760653e-07 -0.09909658 -0.9950756 0.00210901 29 30 34 255 
-2.062569 -0.2736297 0.3343424 -0.1022673 -0.898015 0.4279141 21 22 26 255 
-2.087205 0.1186468 0.8753313 -0.1259608 -0.5890143 0.7982456 17 18 20 255 
-2.107136 0.4360045 0.9786502 -0.1309512 -0.3143282 0.9402391 48 49 51 255 
-2.127067 0.7533622 1.081969 -0.1623122 -0.01019348 0.9866868 25 26 30 255 
1.520304 0.2143911 -1.05503 0.036842 -0.5866308 -0.8090161 7 7 7 255 
1.472259 0.9794092 -1.30409 7.480923e-09 -1.496185e-07 -1 22 22 22 255 
2.272601 1.029673 -1.30409 -0.2352377 -0.01477367 -0.9718256 23 23 23 255 
2.320646 0.2646546 -1.05503 -0.1994337 -0.5848764 -0.7862225 11 11 11 255 
1.448237 1.361918 -1.17956 -0.01936893 0.3084093 -0.9510565 11 11 11 255 
1.424214 1.744428 -1.055031 -0.03684197 0.5866305 -0.8090163 11 11 11 255 
2.224556 1.794691 -1.055031 -0.2710416 0.5553291 -0.7862227 13 13 13 255 
2.248578 1.412182 -1.17956 -0.2342991 0.2876149 -0.9286451 12 12 12 255 
1.39452 2.217236 -0.4029805 -0.2165917 0.9352286 -0.2800635 72 76 79 255 
2.194862 2.267499 -0.4029805 -0.2859499 0.8722283 -0.3968002 13 13 13 255 
0.3847691 2.153821 -0.4029804 0.01935548 -0.3081954 -0.9511262 3 3 3 255 
-0.08965258 2.124026 -0.4029804 0.1651845 0.703163 -0.6915751 10 10 10 255 
1.39452 2.217236 0.4029802 -0.2148119 0.9351915 0.2815544 17 17 17 255 
1.424214 1.744428 1.055031 -0.036842 0.5866307 0.8090162 10 10 10 255 
2.224556 1.794691 1.055031 -0.2710417 0.5553293 0.7862226 22 22 22 255 
2.194862 2.267499 0.4029802 -0.2860966 0.8726858 0.3956871 12 12 12 255 
-1.372405 -0.4419518 -0.40298 -0.09515266 -0.9028998 -0.4191873 10 10 10 255 
-1.372405 -0.5439064 3.053797e-07 -0.09383112 -0.9955867 0.001717257 59 60 64 255 
-1.372405 -0.4419516 0.4029806 -0.09554859 -0.903599 0.4175875 10 10 10 255 
-1.402098 0.03085666 1.055031 -0.1162512 -0.5893145 0.7994961 9 9 9 255 
-1.426121 0.4133658 1.17956 -0.1309511 -0.3143281 0.9402392 68 69 71 255 
-1.450144 0.7958749 1.30409 -0.1526597 -0.009587294 0.9882324 10 10 10 255 
3.542053 1.109398 -1.925639 -0.2157224 -0.01354818 -0.9763607 34 34 34 255 
3.612997 -0.02023955 -1.557874 -0.1797514 -0.586311 -0.7898917 37 37 37 255 
3.471108 2.239035 -1.557874 -0.2516935 0.5592152 -0.7898916 39 39 39 255 
3.50658 1.674217 -1.741757 -0.2342992 0.2876149 -0.9286451 33 33 33 255 
3.427262 2.937191 -0.5950471 -0.2754347 0.8755816 -0.3968533 36 36 36 255 
2.194862 2.352407 -1.664897e-07 -0.2996294 0.9540549 0.001211687 12 12 12 255 
3.427262 2.937191 0.5950466 -0.2750643 0.876103 0.3959587 36 36 36 255 
3.427263 3.068285 -2.831209e-07 -0.2826334 0.9592275 0.001028923 30 30 30 255 
3.471108 2.239036 1.557874 -0.2516934 0.5592154 0.7898915 40 40 40 255 
1.549998 -0.258417 -0.4029801 0.05793922 -0.9097694 -0.4110507 10 10 10 255 
2.35034 -0.2081535 -0.4029801 -0.1749975 -0.8993873 -0.4005975 14 14 14 255 
1.549998 -0.3477138 2.734159e-07 0.06542154 -0.997857 0.001256073 8 8 8 255 
2.35034 -0.2939838 2.646622e-07 -0.1700977 -0.9854264 0.001255571 13 13 13 255 
1.520304 0.2143914 1.055031 0.03684196 -0.5866305 0.8090163 10 10 10 255 
1.549998 -0.2584169 0.4029806 0.05792793 -0.9102864 0.4099062 10 10 10 255 
2.35034 -0.2081533 0.4029806 -0.1750182 -0.8998881 0.3994622 13 13 13 255 
2.320646 0.264655 1.055031 -0.1994338 -0.5848761 0.7862227 11 11 11 255 
1.496282 0.5969005 1.17956 0.01936893 -0.3084094 0.9510565 11 11 11 255 
2.296623 0.6471641 1.17956 -0.196474 -0.3146686 0.9286451 13 13 13 255 
1.472259 0.9794096 1.30409 -9.195301e-09 1.396439e-07 1 21 21 21 255 
2.272601 1.029673 1.30409 -0.2352376 -0.01477341 0.9718256 13 13 13 255 
6.070851 1.268213 -1.925639 0.7065021 0.0443699 -0.7063187 22 24 21 255 
6.141796 0.1385758 -1.557874 0.7325242 -0.369978 -0.5714233 77 77 79 255 
5.999907 2.397851 -1.557874 0.6804799 0.4587184 -0.5714233 23 27 26 255 
6.035379 1.833032 -1.741757 0.7671737 0.2416248 -0.5941902 80 81 83 255 
5.956061 3.096006 -0.5950472 0.6905855 0.6619676 -0.2913598 27 29 26 255 
5.956061 3.096006 0.5950466 0.6898044 0.663009 0.2908417 77 77 79 255 
5.956062 3.238053 -3.107797e-07 0.6822379 0.7311298 0.000919185 73 74 76 255 
5.999907 2.397851 1.557874 0.6804799 0.4587185 0.5714232 78 78 80 255 
3.656843 -0.7183957 -0.5950465 -0.1602432 -0.9057974 -0.3922414 38 38 38 255 
3.656843 -0.8394157 3.535243e-07 -0.1603561 -0.9870587 0.001042102 38 38 38 255 
3.656843 -0.7183955 0.5950472 -0.1598093 -0.9062769 0.3913096 39 39 39 255 
3.612997 -0.02023905 1.557874 -0.1797513 -0.5863107 0.7898919 55 55 55 255 
3.577525 0.5445797 1.741757 -0.196474 -0.3146686 0.9286451 44 44 44 255 
3.542053 1.109398 1.925639 -0.2157224 -0.01354786 0.9763607 44 44 44 255 
5.948802 1.260548 -1.353655 0.7457336 0.04683386 0.6645963 113 113 111 255 
5.998673 0.466454 -1.095129 0.7212488 0.4367065 0.5376688 144 144 142 255 
5.898931 2.054642 -1.095129 0.7702188 -0.3430383 0.5376689 99 101 98 255 
5.923866 1.657595 -1.224392 0.6926403 -0.1835875 0.6975278 95 95 93 255 
5.868108 2.54542 -0.4182967 0.7589055 -0.5839265 0.2882572 118 120 115 255 
5.868108 2.54542 0.4182962 0.7584938 -0.5843059 -0.288572 140 142 139 255 
5.868109 2.649495 -2.148915e-07 0.7782028 -0.6280131 5.740846e-05 117 120 113 255 
5.898931 2.054643 1.095129 0.7702188 -0.3430386 -0.5376686 103 106 99 255 
6.185642 -0.5595801 -0.5950466 0.7669042 -0.5826264 -0.2690807 76 76 78 255 
6.185643 -0.6696472 3.258655e-07 0.7730632 -0.6343285 0.0007920641 20 25 21 255 
6.185642 -0.5595799 0.5950472 0.7661742 -0.5837613 0.2687004 20 25 21 255 
6.141796 0.1385763 1.557874 0.732524 -0.369978 0.5714236 25 27 24 255 
6.106324 0.7033951 1.741757 0.7913761 -0.1437437 0.59419 43 47 46 255 
6.070851 1.268214 1.925639 0.7065021 0.04437033 0.7063187 76 77 79 255 
5.122009 1.208624 -1.226253 0.3016439 0.01894415 0.9532325 127 127 125 255 
5.167187 0.4892666 -0.9920594 0.2665251 0.5781394 0.7711805 113 113 111 255 
5.076832 1.927981 -0.9920596 0.3367628 -0.5402514 0.7711805 125 125 123 255 
5.099421 1.568302 -1.109156 0.3161038 -0.2756866 0.907786 121 121 119 255 
5.048911 2.372568 -0.378928 0.3582163 -0.8452581 0.3965097 120 123 112 255 
5.048911 2.372568 0.3789277 0.358733 -0.8449296 -0.3967424 119 122 113 255 
5.048911 2.464722 -1.847881e-07 0.3687747 -0.9295188 0.0003712118 119 122 111 255 
5.076832 1.927981 0.9920594 0.3367629 -0.5402516 -0.7711803 124 127 118 255 
6.029495 -0.0243245 -0.4182962 0.6893898 0.6714494 0.271841 159 160 154 255 
6.029496 -0.09747657 1.900056e-07 0.6740303 0.7387037 -9.083832e-05 158 159 151 255 
6.029495 -0.02432436 0.4182966 0.6888124 0.6719974 -0.27195 157 160 151 255 
5.998673 0.4664543 1.095129 0.7212489 0.4367062 -0.5376688 107 110 103 255 
5.973737 0.8635015 1.224392 0.6642287 0.2688027 -0.697528 94 97 88 255 
5.948802 1.260549 1.353655 0.7457336 0.04683398 -0.6645962 107 110 101 255 
4.545985 1.172448 -0.9252923 0.6208724 0.03899271 0.7829413 196 199 204 255 
4.580074 0.6296436 -0.7485768 0.5920275 0.4982898 0.6334121 162 162 172 255 
4.511895 1.715252 -0.748577 0.6497173 -0.4203052 0.6334122 149 154 157 255 
4.52894 1.44385 -0.8369347 0.6389223 -0.2015676 0.742394 148 151 144 255 
4.490827 2.050724 -0.2859272 0.6709396 -0.6670205 0.3239193 135 139 150 255 
4.490827 2.050724 0.285927 0.6710988 -0.6670628 -0.3235022 116 120 129 255 
4.490827 2.120681 -1.07416e-07 0.6792046 -0.7339489 -0.0003726777 158 162 173 255 
4.511895 1.715252 0.7485769 0.6497173 -0.4203053 -0.6334121 138 142 145 255 
5.195108 0.0446785 -0.3789277 0.2471752 0.8939069 0.3739451 127 129 126 255 
5.195109 -0.02371476 2.206297e-07 0.2482501 0.9686959 0.0003479412 115 113 114 255 
5.195108 0.04467862 0.3789281 0.2477656 0.8936303 -0.3742153 112 112 110 255 
5.167187 0.4892669 0.9920596 0.2665251 0.5781391 -0.7711806 113 113 111 255 
5.144598 0.8489454 1.109156 0.2791285 0.3130687 -0.907786 104 107 100 255 
5.122009 1.208624 1.226253 0.301644 0.01894392 -0.9532325 123 126 119 255 
4.434988 1.165477 -0.7809328 0.9927556 0.0623472 -0.1027094 215 216 221 255 
4.463759 0.7073583 -0.6317876 0.9965395 0.002095573 -0.08309358 219 218 232 255 
4.406217 1.623595 -0.6317877 0.9889715 0.1226001 -0.0830934 168 177 186 255 
4.420603 1.394536 -0.7063603 0.959603 0.1397639 -0.2441888 178 180 192 255 
4.388435 1.906729 -0.2413182 0.9747521 0.2126009 -0.06825902 123 132 149 255 
4.388435 1.906729 0.2413181 0.9751659 0.2112632 0.06647824 136 144 157 255 
4.388436 1.966755 -8.233823e-08 0.9791694 0.2030433 0.0008994553 131 140 157 255 
4.406217 1.623596 0.6317877 0.9889716 0.1225997 0.08309327 150 154 166 255 
4.601143 0.2941713 -0.2859269 0.5796595 0.7538087 0.3094629 208 212 223 255 
4.601143 0.2429848 1.984996e-07 0.5863326 0.8100703 -0.0004536803 172 171 176 255 
4.601143 0.2941714 0.2859273 0.5798347 0.7538652 -0.3089968 143 147 150 255 
4.580074 0.6296439 0.7485771 0.5920274 0.4982896 -0.6334122 191 199 210 255 
4.563029 0.9010459 0.8369347 0.6086833 0.2799208 -0.7423941 173 180 196 255 
4.545985 1.172448 0.9252924 0.6208723 0.03899223 -0.7829415 149 152 157 255 
5.34487 1.22262 -0.4084343 0.5443 0.03418339 -0.8381939 171 182 86 255 
5.359917 0.9830201 -0.3304301 0.5751802 -0.4575271 -0.6781126 174 192 74 255 
5.329823 1.46222 -0.3304302 0.5134192 0.5258937 -0.6781125 191 201 112 255 
5.337346 1.34242 -0.3694323 0.5289736 0.2925665 -0.7966127 191 201 112 255 
5.320522 1.610301 -0.1262114 0.4976513 0.7782585 -0.3829581 217 229 131 255 
5.320522 1.610301 0.1262114 0.4985797 0.7799959 0.3781862 192 211 104 255 
5.320524 1.649884 -3.071329e-08 0.504261 0.8635375 0.004881002 217 229 131 255 
5.329823 1.46222 0.3304302 0.5134193 0.5258942 0.6781121 186 210 90 255 
4.481541 0.4242248 -0.241318 0.9959282 -0.07935919 -0.04276967 150 154 165 255 
4.481541 0.3820077 1.758499e-07 0.9934323 -0.114419 0.0008208629 226 225 230 255 
4.481541 0.4242249 0.2413183 0.9961143 -0.07778782 0.0412964 190 193 198 255 
4.463759 0.7073585 0.6317878 0.9965395 0.002095466 0.08309381 212 225 241 255 
4.449374 0.9364178 0.7063603 0.9695494 -0.01860724 0.2441882 184 193 210 255 
4.434988 1.165477 0.7809328 0.9927556 0.06234793 0.1027094 162 171 166 255 
5.548105 1.235384 -0.1944122 0.9003091 0.056544 -0.4315627 168 180 82 255 
5.555267 1.121336 -0.1572827 0.9162539 -0.1965632 -0.3490583 174 192 70 255 
5.540942 1.349432 -0.1572827 0.8844614 0.3096543 -0.3490593 168 180 82 255 
5.544524 1.292408 -0.1758474 0.9145966 0.1759973 -0.3640576 168 180 82 255 
5.536516 1.419917 -0.06007583 0.8939047 0.3954865 -0.2110091 204 218 121 255 
5.536516 1.419917 0.06007583 0.8819022 0.4167624 0.2203578 204 218 121 255 
5.536516 1.44637 -2.886884e-09 0.8730739 0.4875461 0.006389898 204 218 121 255 
5.540942 1.349432 0.1572827 0.8844609 0.3096544 0.3490605 177 198 81 255 
5.369217 0.8349389 -0.1262113 0.5986247 -0.7419816 -0.3018475 165 186 57 255 
5.369218 0.8210475 1.043212e-07 0.6088905 -0.7932398 0.004808758 170 191 60 255 
5.369217 0.834939 0.1262115 0.5989075 -0.7435346 0.2974326 170 191 60 255 
5.359917 0.9830202 0.3304303 0.5751802 -0.4575269 0.6781127 172 193 74 255 
5.352394 1.10282 0.3694323 0.5614211 -0.2240871 0.7966124 175 196 79 255 
5.34487 1.22262 0.4084344 0.5443001 0.03418316 0.8381939 175 196 79 255 
5.548105 1.235384 0.1944122 0.8991281 0.05631139 0.4340479 174 195 78 255 
5.551686 1.17836 0.1758475 0.9292786 -0.06107288 0.3642958 174 195 78 255 
5.555267 1.121336 0.1572828 0.9162533 -0.1965634 0.3490598 174 195 78 255 
5.559694 1.05085 0.06007589 0.9255354 -0.3556096 0.1301003 173 191 69 255 
5.559694 1.051849 6.138871e-08 0.9504426 -0.3108447 0.005868931 173 191 69 255 
5.559694 1.05085 -0.06007577 0.9280278 -0.3467572 -0.1361024 173 191 69 255 
-7.394284 1.45862 0.3359673 -0.9203855 0.3595197 0.1537403 15 16 18 255 
-7.46574 1.215654 0.2586346 -0.9903176 0.1226948 0.06493838 29 25 24 255 
-7.446682 0.9122033 0.6771234 -0.9856451 0.0544391 0.159813 53 58 54 255 
-7.415847 0.4212113 0.8369709 -0.9783673 -0.06144424 0.19754 26 27 29 255 
-7.400429 0.1757153 0.7570473 -0.9795382 -0.1152357 0.1650022 28 30 29 255 
-7.289418 -0.211165 0.8795863 -0.8762099 -0.3183927 0.3617766 19 21 20 255 
-7.385011 -0.06978083 0.6771236 -0.9710897 -0.1773265 0.159813 18 19 21 255 
-7.365954 -0.3732313 0.2586348 -0.9715203 -0.2179829 0.0929076 15 19 20 255 
-7.365954 -0.4704466 2.934116e-07 -0.9726821 -0.2321167 0.003400501 28 34 32 255 
-7.394284 1.45862 -0.3359674 -0.9206623 0.3574345 -0.1569122 20 22 21 255 
-7.394285 1.487742 -2.561777e-08 -0.9262393 0.3769208 0.003407848 7 9 6 255 
-7.369529 1.064436 -0.879586 -0.9091601 0.2062669 -0.3617761 22 27 23 255 
-7.264662 -0.6053486 -0.335967 -0.8686323 -0.4459164 -0.2159549 18 18 18 255 
1.39452 2.298677 -1.577359e-07 -0.4354076 0.9002315 -0.001878334 16 16 16 255 
0.3847691 2.153821 0.4029802 -0.0284584 0.4531396 0.8909852 3 3 3 255 
-0.08965258 2.124026 0.4029802 0.1008464 0.9254603 0.3651758 46 50 49 255 
0.00742542 2.039762 -0.3300068 0.2608431 0.9327503 0.2488729 10 10 10 255 
1.308748 2.121488 -0.3300068 -0.3659782 0.8963185 0.250346 81 82 84 255 
0.4144627 1.681013 1.055031 -0.03684199 0.5866308 0.8090161 44 44 44 255 
0.4625079 0.9159945 1.30409 -5.22106e-09 1.483716e-07 1 1 1 1 255 
0.4865305 0.5334854 1.17956 0.01936894 -0.3084094 0.9510565 10 10 10 255 
0.5105531 0.1509763 1.055031 0.03684199 -0.5866304 0.8090163 26 27 29 255 
0.5402467 -0.321832 0.4029806 0.05785312 -0.9081702 0.4145842 10 10 10 255 
0.5402466 -0.4155023 2.8446e-07 0.06524187 -0.9978687 0.001294141 9 9 9 255 
0.5402467 -0.3218322 -0.4029801 0.05792008 -0.9076279 -0.4157606 13 13 13 255 
0.5105531 0.1509759 -1.05503 0.036842 -0.5866308 -0.8090161 9 9 9 255 
0.4144627 1.681012 -1.055031 -0.03684197 0.5866305 -0.8090163 12 12 12 255 
0.4384853 1.298503 -1.17956 -0.01936894 0.3084094 -0.9510565 12 12 12 255 
0.4625079 0.9159941 -1.30409 1.496185e-08 -1.957508e-07 -1 10 10 10 255 
-0.08965263 2.199039 -1.415028e-07 0.3232981 0.94629 0.003702569 48 52 51 255 
1.308748 2.196326 -1.410608e-07 -0.478449 0.8781027 -0.004712289 68 69 71 255 
0.00742542 2.039762 0.3300066 0.2542586 0.9338493 -0.2515512 47 51 50 255 
0.007425345 2.108963 -1.268276e-07 0.3549683 0.9348716 0.003557836 12 12 12 255 
1.308748 2.121488 0.3300065 -0.3699211 0.8956929 -0.2467644 64 65 69 255 
-7.46574 1.215654 -0.2586345 -0.9904803 0.1204639 -0.06661344 42 46 45 255 
-7.465741 1.228019 1.669645e-08 -0.9902636 0.1391952 0.001636892 29 30 34 255 
-7.365954 -0.3732314 -0.2586343 -0.9719061 -0.2157119 -0.09416443 17 21 22 255 
-7.385011 -0.06978106 -0.6771231 -0.9710896 -0.1773267 -0.1598129 39 48 47 255 
-7.415847 0.4212111 -0.8369706 -0.9783673 -0.06144406 -0.1975399 36 42 38 255 
-7.431264 0.6667071 -0.757047 -0.986259 -0.008221523 -0.1650019 28 32 31 255 
-7.446682 0.9122031 -0.6771233 -0.9856451 0.05443868 -0.1598132 13 17 18 255 
3 0 1 2 
3 0 2 3 
3 4 5 6 
3 4 6 1 
3 7 8 9 
3 7 9 10 
3 11 12 6 
3 11 6 5 
3 13 7 10 
3 13 10 14 
3 15 16 17 
3 15 17 4 
3 18 19 20 
3 18 20 21 
3 22 23 24 
3 22 24 25 
3 26 27 28 
3 26 28 29 
3 30 31 32 
3 30 32 33 
3 34 35 36 
3 34 36 37 
3 38 39 40 
3 38 40 41 
3 42 43 44 
3 42 44 45 
3 46 47 48 
3 46 48 49 
3 50 51 52 
3 50 52 53 
3 14 37 36 
3 14 36 32 
3 33 41 40 
3 33 40 28 
3 29 45 44 
3 29 44 24 
3 25 49 48 
3 25 48 20 
3 21 53 52 
3 21 52 17 
3 21 20 54 
3 21 54 55 
3 8 34 37 
3 8 37 9 
3 31 13 14 
3 31 14 32 
3 0 15 4 
3 0 4 1 
3 51 11 5 
3 51 5 52 
3 52 5 56 
3 52 56 57 
3 10 9 58 
3 10 58 59 
3 47 50 53 
3 47 53 48 
3 16 18 21 
3 16 21 17 
3 36 41 60 
3 36 60 61 
3 43 46 49 
3 43 49 44 
3 19 22 25 
3 19 25 20 
3 37 14 62 
3 37 62 63 
3 39 42 45 
3 39 45 40 
3 23 26 29 
3 23 29 24 
3 45 29 64 
3 45 64 65 
3 35 38 41 
3 35 41 36 
3 27 30 33 
3 27 33 28 
3 66 3 2 
3 66 2 67 
3 6 67 68 
3 6 68 69 
3 6 12 66 
3 6 66 67 
3 12 0 3 
3 12 3 66 
3 58 63 70 
3 58 70 71 
3 72 73 74 
3 72 74 75 
3 76 77 78 
3 76 78 79 
3 80 61 81 
3 80 81 82 
3 83 57 84 
3 83 84 85 
3 86 72 75 
3 86 75 87 
3 88 89 90 
3 88 90 91 
3 28 40 92 
3 28 92 93 
3 49 25 72 
3 49 72 86 
3 5 4 94 
3 5 94 56 
3 24 44 95 
3 24 95 73 
3 48 53 77 
3 48 77 76 
3 1 6 69 
3 1 69 89 
3 25 24 73 
3 25 73 72 
3 53 21 55 
3 53 55 77 
3 20 48 76 
3 20 76 54 
3 44 49 86 
3 44 86 95 
3 14 10 59 
3 14 59 62 
3 29 28 93 
3 29 93 64 
3 2 1 89 
3 2 89 88 
3 67 2 88 
3 67 88 68 
3 41 33 96 
3 41 96 60 
3 17 52 57 
3 17 57 83 
3 9 37 63 
3 9 63 58 
3 33 32 80 
3 33 80 96 
3 4 17 83 
3 4 83 94 
3 32 36 61 
3 32 61 80 
3 40 45 65 
3 40 65 92 
3 97 71 70 
3 97 70 98 
3 85 84 99 
3 85 99 100 
3 101 79 78 
3 101 78 102 
3 74 103 87 
3 74 87 75 
3 104 105 106 
3 104 106 107 
3 82 81 108 
3 82 108 109 
3 90 110 111 
3 90 111 91 
3 69 68 111 
3 69 111 110 
3 65 64 107 
3 65 107 106 
3 63 62 98 
3 63 98 70 
3 93 92 105 
3 93 105 104 
3 95 86 87 
3 95 87 103 
3 64 93 104 
3 64 104 107 
3 59 58 71 
3 59 71 97 
3 60 96 109 
3 60 109 108 
3 56 94 100 
3 56 100 99 
3 73 95 103 
3 73 103 74 
3 94 83 85 
3 94 85 100 
3 89 69 110 
3 89 110 90 
3 92 65 106 
3 92 106 105 
3 96 80 82 
3 96 82 109 
3 68 88 91 
3 68 91 111 
3 77 55 102 
3 77 102 78 
3 54 76 79 
3 54 79 101 
3 57 56 99 
3 57 99 84 
3 55 54 101 
3 55 101 102 
3 62 59 97 
3 62 97 98 
3 61 60 108 
3 61 108 81 
3 112 113 114 
3 112 114 115 
3 116 117 118 
3 116 118 119 
3 120 116 119 
3 120 119 121 
3 122 112 115 
3 122 115 123 
3 124 125 126 
3 124 126 127 
3 128 129 130 
3 128 130 131 
3 132 128 131 
3 132 131 133 
3 134 124 127 
3 134 127 135 
3 117 136 137 
3 117 137 118 
3 113 138 139 
3 113 139 114 
3 134 136 140 
3 134 140 141 
3 132 138 142 
3 132 142 143 
3 122 125 144 
3 122 144 145 
3 136 117 146 
3 136 146 140 
3 138 113 147 
3 138 147 142 
3 119 118 148 
3 119 148 149 
3 118 137 150 
3 118 150 148 
3 135 127 151 
3 135 151 152 
3 127 126 153 
3 127 153 151 
3 123 115 154 
3 123 154 155 
3 156 157 158 
3 156 158 159 
3 160 161 162 
3 160 162 163 
3 161 164 165 
3 161 165 162 
3 166 149 167 
3 166 167 168 
3 149 148 169 
3 149 169 167 
3 121 119 149 
3 121 149 166 
3 131 130 164 
3 131 164 161 
3 133 131 161 
3 133 161 160 
3 114 139 157 
3 114 157 156 
3 115 114 156 
3 115 156 154 
3 159 158 170 
3 159 170 171 
3 163 162 172 
3 163 172 173 
3 162 165 174 
3 162 174 172 
3 168 167 175 
3 168 175 176 
3 167 169 177 
3 167 177 175 
3 154 156 159 
3 154 159 178 
3 155 154 178 
3 155 178 179 
3 151 153 180 
3 151 180 181 
3 152 151 181 
3 152 181 182 
3 148 150 183 
3 148 183 169 
3 184 185 186 
3 184 186 187 
3 188 189 190 
3 188 190 191 
3 189 192 193 
3 189 193 190 
3 194 174 195 
3 196 197 198 
3 196 198 199 
3 178 159 171 
3 178 171 200 
3 179 178 200 
3 179 200 201 
3 181 180 202 
3 181 202 203 
3 182 181 203 
3 182 203 204 
3 169 183 205 
3 169 205 177 
3 187 186 206 
3 187 206 207 
3 191 190 208 
3 191 208 209 
3 190 193 210 
3 190 210 208 
3 211 199 212 
3 211 212 213 
3 199 198 214 
3 199 214 212 
3 215 184 187 
3 215 187 216 
3 217 215 216 
3 217 216 218 
3 219 220 221 
3 219 221 222 
3 223 219 222 
3 223 222 224 
3 197 225 226 
3 197 226 198 
3 207 206 227 
3 207 227 228 
3 209 208 229 
3 209 229 230 
3 208 210 231 
3 208 231 229 
3 213 212 232 
3 213 232 233 
3 212 214 234 
3 212 234 232 
3 216 187 207 
3 216 207 235 
3 218 216 235 
3 218 235 236 
3 222 221 237 
3 222 237 238 
3 224 222 238 
3 224 238 239 
3 198 226 240 
3 198 240 214 
3 228 227 241 
3 228 241 242 
3 230 229 243 
3 230 243 244 
3 229 231 245 
3 229 245 243 
3 233 232 246 
3 233 246 247 
3 232 234 248 
3 232 248 246 
3 235 207 228 
3 235 228 249 
3 236 235 249 
3 236 249 250 
3 238 237 251 
3 238 251 252 
3 239 238 252 
3 239 252 253 
3 214 240 254 
3 214 254 234 
3 242 241 255 
3 242 255 256 
3 244 243 257 
3 244 257 258 
3 243 245 259 
3 243 259 257 
3 247 246 260 
3 247 260 261 
3 246 248 262 
3 246 262 260 
3 249 228 242 
3 249 242 263 
3 250 249 263 
3 250 263 264 
3 252 251 265 
3 252 265 266 
3 253 252 266 
3 253 266 267 
3 234 254 268 
3 234 268 248 
3 256 255 269 
3 256 269 270 
3 258 257 271 
3 258 271 272 
3 257 259 273 
3 257 273 271 
3 261 260 274 
3 261 274 275 
3 260 262 276 
3 260 276 274 
3 263 242 256 
3 263 256 277 
3 264 263 277 
3 264 277 278 
3 266 265 279 
3 266 279 280 
3 267 266 280 
3 267 280 281 
3 248 268 282 
3 248 282 262 
3 270 269 283 
3 270 283 284 
3 272 271 285 
3 272 285 286 
3 271 273 287 
3 271 287 285 
3 275 274 288 
3 275 288 289 
3 274 276 290 
3 274 290 288 
3 277 256 270 
3 277 270 291 
3 278 277 291 
3 278 291 292 
3 280 279 293 
3 280 293 294 
3 281 280 294 
3 281 294 295 
3 262 282 296 
3 262 296 276 
3 284 283 297 
3 284 297 298 
3 286 285 299 
3 286 299 300 
3 285 287 301 
3 285 301 299 
3 289 288 302 
3 289 302 303 
3 288 290 304 
3 288 304 302 
3 291 270 284 
3 291 284 305 
3 292 291 305 
3 292 305 306 
3 294 293 307 
3 294 307 308 
3 295 294 308 
3 295 308 309 
3 276 296 310 
3 276 310 290 
3 298 297 311 
3 298 311 312 
3 300 299 313 
3 300 313 314 
3 299 301 315 
3 299 315 313 
3 303 302 316 
3 303 316 317 
3 302 304 318 
3 302 318 316 
3 305 284 298 
3 305 298 319 
3 306 305 319 
3 306 319 320 
3 308 307 321 
3 308 321 322 
3 309 308 322 
3 309 322 323 
3 290 310 324 
3 290 324 304 
3 318 325 316 
3 317 316 325 
3 317 325 326 
3 327 328 313 
3 327 313 315 
3 314 313 328 
3 314 328 329 
3 312 311 330 
3 319 298 312 
3 319 312 330 
3 320 319 330 
3 320 330 329 
3 322 321 328 
3 322 328 327 
3 323 322 327 
3 323 327 326 
3 304 324 325 
3 304 325 318 
3 146 331 332 
3 146 332 333 
3 140 146 333 
3 140 333 334 
3 141 140 334 
3 141 334 335 
3 144 336 337 
3 144 337 338 
3 145 144 338 
3 145 338 339 
3 125 124 336 
3 125 336 144 
3 117 116 331 
3 117 331 146 
3 120 129 340 
3 120 340 341 
3 129 128 342 
3 129 342 340 
3 113 112 343 
3 113 343 147 
3 344 196 199 
3 344 199 211 
3 345 196 346 
3 192 195 347 
3 192 347 348 
3 349 350 225 
3 349 225 197 
3 351 352 219 
3 351 219 223 
3 352 353 220 
3 352 220 219 
3 354 355 215 
3 354 215 217 
3 355 356 184 
3 355 184 215 
3 345 349 197 
3 345 197 196 
3 357 194 192 
3 357 192 189 
3 358 357 189 
3 358 189 188 
3 356 359 185 
3 356 185 184 
3 171 170 359 
3 171 359 356 
3 173 172 357 
3 173 357 358 
3 172 174 194 
3 172 194 357 
3 175 177 349 
3 175 349 345 
3 200 171 356 
3 200 356 355 
3 201 200 355 
3 201 355 354 
3 203 202 353 
3 203 353 352 
3 204 203 352 
3 204 352 351 
3 177 205 350 
3 177 350 349 
3 176 175 346 
3 176 346 360 
3 175 345 346 
3 192 194 195 
3 344 192 348 
3 344 348 361 
3 360 346 362 
3 360 362 363 
3 346 196 364 
3 346 364 362 
3 361 363 362 
3 361 362 364 
3 365 333 332 
3 365 332 366 
3 367 339 338 
3 367 338 368 
3 337 369 368 
3 337 368 338 
3 370 335 334 
3 370 334 371 
3 333 365 371 
3 333 371 334 
3 341 340 365 
3 341 365 366 
3 340 342 371 
3 340 371 365 
3 143 142 369 
3 143 369 370 
3 142 147 368 
3 142 368 369 
3 147 343 367 
3 147 367 368 
3 342 143 370 
3 342 370 371 
3 331 341 366 
3 331 366 332 
3 369 337 335 
3 369 335 370 
3 348 347 363 
3 348 363 361 
3 195 360 363 
3 195 363 347 
3 196 344 361 
3 196 361 364 
3 174 176 360 
3 174 360 195 
3 205 204 351 
3 205 351 350 
3 202 201 354 
3 202 354 353 
3 170 173 358 
3 170 358 359 
3 359 358 188 
3 359 188 185 
3 353 354 217 
3 353 217 220 
3 350 351 223 
3 350 223 225 
3 192 344 211 
3 192 211 193 
3 116 120 341 
3 116 341 331 
3 343 145 339 
3 343 339 367 
3 336 141 335 
3 336 335 337 
3 324 323 326 
3 324 326 325 
3 321 320 329 
3 321 329 328 
3 311 314 329 
3 311 329 330 
3 315 317 326 
3 315 326 327 
3 310 309 323 
3 310 323 324 
3 307 306 320 
3 307 320 321 
3 301 303 317 
3 301 317 315 
3 297 300 314 
3 297 314 311 
3 296 295 309 
3 296 309 310 
3 293 292 306 
3 293 306 307 
3 287 289 303 
3 287 303 301 
3 283 286 300 
3 283 300 297 
3 282 281 295 
3 282 295 296 
3 279 278 292 
3 279 292 293 
3 273 275 289 
3 273 289 287 
3 269 272 286 
3 269 286 283 
3 268 267 281 
3 268 281 282 
3 265 264 278 
3 265 278 279 
3 259 261 275 
3 259 275 273 
3 255 258 272 
3 255 272 269 
3 254 253 267 
3 254 267 268 
3 251 250 264 
3 251 264 265 
3 245 247 261 
3 245 261 259 
3 241 244 258 
3 241 258 255 
3 240 239 253 
3 240 253 254 
3 237 236 250 
3 237 250 251 
3 231 233 247 
3 231 247 245 
3 227 230 244 
3 227 244 241 
3 226 224 239 
3 226 239 240 
3 221 218 236 
3 221 236 237 
3 210 213 233 
3 210 233 231 
3 206 209 230 
3 206 230 227 
3 225 223 224 
3 225 224 226 
3 220 217 218 
3 220 218 221 
3 193 211 213 
3 193 213 210 
3 186 191 209 
3 186 209 206 
3 183 182 204 
3 183 204 205 
3 180 179 201 
3 180 201 202 
3 185 188 191 
3 185 191 186 
3 150 152 182 
3 150 182 183 
3 153 155 179 
3 153 179 180 
3 165 168 176 
3 165 176 174 
3 158 163 173 
3 158 173 170 
3 139 133 160 
3 139 160 157 
3 130 121 166 
3 130 166 164 
3 164 166 168 
3 164 168 165 
3 157 160 163 
3 157 163 158 
3 126 123 155 
3 126 155 153 
3 137 135 152 
3 137 152 150 
3 112 122 145 
3 112 145 343 
3 128 132 143 
3 128 143 342 
3 124 134 141 
3 124 141 336 
3 136 134 135 
3 136 135 137 
3 138 132 133 
3 138 133 139 
3 125 122 123 
3 125 123 126 
3 129 120 121 
3 129 121 130 
